# xmcd
#
# Track frame offsets:
#	150
#	10770
#	20442
#	32107
#	54360
#	76700
#	99812
#	121717
#	144277
#	161547
#	184122
#	206617
#	228980
#	251300
#
# Disc length: 3677 seconds
#
# Revision: 2
# Processed by: cddbd v1.5.2PL0 Copyright (c) Steve Scherf et al.
# Submitted via: EasyCDDAExtractor 10.0.2.1
#
DISCID=980e5b0e
DTITLE=BILLY THE COCK - REMIX SERTANEJO - VOL.02 - 1997 (BILLY THE COCK) PLINT
DTITLE=A MUSIC [CD 011 272-2)
DYEAR=1997
DGENRE=Sertanejo
TTITLE0=REMIX SERTANEJO (PARTE I) NASCEMOS PRA CANTAR - PRECISO TE ENCONTRAR (
TTITLE0=BY GILMAR SINISTRO)
TTITLE1=NÃO VIVO SEM VOCÊ - COMO UM ANJO - VOU TE AMARRAR NA MINHA CAMA (BY GI
TTITLE1=LMAR SINISTRO)
TTITLE2=DIZ QUE ME AMA - PÉ NA ESTRADA - REMIX SERTANEJO (PARTE II) (BY GILMAR
TTITLE2=SINISTRO)
TTITLE3=PERDÕES - FOI A PRIMEIRA VEZ - HOJE EU SEI (BY GILMAR SINISTRO)
TTITLE4=DESEJO DE AMAR - DOCE PAIXÃO - SAUDADE MALUCA (BY GILMAR SINISTRO)
TTITLE5=PENSANDO EM MINHA AMADA - VIVENDO POR VIVER - RÉDEAS DO POSSANTE (BY G
TTITLE5=ILMAR SINISTRO)
TTITLE6=SAUDADE DA MINHA TERRA - LEMBRANÇA - 60 DIAS APAIXONADO (BY GILMAR SIN
TTITLE6=ISTRO)
TTITLE7=40 E 20 - SEPERAÇÃO - PEDINDO AMOR (BY GILMAR SINISTRO)
TTITLE8=FUI DANDO PORRADA - HOJE EU TOPO O QUE VIER - VÁ PRO INFERNO COM SEU A
TTITLE8=MOR (BY GILMAR SINISTRO)
TTITLE9=FRENTE A FRENTE - SEMPRE SERÁ - NOSSA GUERRA SANTA (BY GILMAR SINISTRO
TTITLE9=)
TTITLE10=NA HORA H - GUADALUPE - VEM FICAR COMIGO (BY GILMAR SINISTRO)
TTITLE11=ESSA TAL LIBERDADE - AMOR VERDADEIRO (BY GILMAR SINISTRO)
TTITLE12=NÃO DESLIGUE O RÁDIO - EVIDÊNCIAS - FOGE DE MIM (BY GILMAR SINISTRO)
TTITLE13=DIA DE VISITA - OLHOS CLAROS (BY GILMAR SINISTRO)
EXTD=
EXTT0=
EXTT1=
EXTT2=
EXTT3=
EXTT4=
EXTT5=
EXTT6=
EXTT7=
EXTT8=
EXTT9=
EXTT10=
EXTT11=
EXTT12=
EXTT13=
PLAYORDER=
